<?xml version="1.0" standalone="no"?>
<!DOCTYPE svg PUBLIC "-//W3C//DTD SVG 20010904//EN"
 "http://www.w3.org/TR/2001/REC-SVG-20010904/DTD/svg10.dtd">
<svg version="1.0" xmlns="http://www.w3.org/2000/svg"
 width="700.000000pt" height="700.000000pt" viewBox="0 0 700.000000 700.000000"
 preserveAspectRatio="xMidYMid meet">
<metadata>
Created by potrace 1.11, written by Peter Selinger 2001-2013
</metadata>
<g transform="translate(0.000000,700.000000) scale(0.100000,-0.100000)"
fill="#000000" stroke="none">
<path d="M3275 6924 c-440 -34 -893 -214 -1204 -477 -328 -279 -674 -821 -790
-1237 -96 -348 -125 -680 -102 -1145 25 -486 25 -515 9 -515 -9 0 -47 -16 -86
-36 -81 -40 -129 -91 -158 -169 -26 -70 -24 -273 4 -401 33 -146 146 -444 247
-651 135 -276 216 -390 312 -435 41 -19 73 -65 73 -105 0 -45 137 -419 204
-558 116 -238 188 -317 631 -691 315 -266 381 -315 496 -368 46 -21 92 -43
101 -47 10 -5 25 -9 35 -9 23 0 83 -22 83 -31 0 -9 -57 -29 -81 -29 -11 0 -19
-4 -19 -10 0 -6 42 -10 105 -10 83 0 106 3 113 15 7 14 47 17 263 20 140 3
274 6 299 7 40 3 45 0 48 -19 3 -22 7 -23 103 -23 54 0 99 4 99 8 0 4 -19 13
-42 19 -24 7 -52 19 -63 27 -19 15 -19 16 15 28 19 7 87 39 150 70 118 59 144
79 460 348 451 384 450 383 546 526 81 121 143 263 227 514 41 124 79 241 84
260 7 28 18 39 56 57 96 46 180 158 304 408 44 88 108 237 143 330 34 94 66
178 71 188 5 9 21 70 36 135 34 153 39 347 9 432 -25 73 -112 160 -176 179
-80 23 -88 32 -80 88 35 221 49 955 22 1153 -63 459 -188 790 -443 1170 -95
141 -208 276 -370 441 -118 120 -157 151 -294 231 -424 250 -900 353 -1440
312z m-966 -1891 c408 -102 624 -131 1058 -140 514 -11 875 25 1282 127 340
86 419 93 510 46 112 -58 215 -252 270 -508 91 -422 128 -1215 77 -1643 -87
-722 -223 -1288 -397 -1650 -101 -212 -178 -298 -526 -594 -367 -311 -423
-354 -526 -405 -221 -108 -539 -141 -842 -87 -131 24 -206 49 -294 97 -76 42
-102 62 -265 199 -65 55 -176 147 -245 204 -137 112 -233 201 -350 326 -123
130 -225 346 -324 685 -67 226 -121 451 -156 645 -39 217 -100 713 -108 875
-8 192 25 763 62 1048 45 340 130 613 230 732 106 127 188 133 544 43z m-1029
-1600 c16 -9 33 -27 39 -40 11 -24 15 -86 6 -94 -2 -3 -34 -1 -70 5 l-66 9
-34 -33 c-47 -45 -70 -139 -49 -194 8 -21 24 -10 24 17 1 33 36 104 58 116 25
13 78 -3 121 -38 l32 -27 34 -284 c19 -157 39 -316 44 -355 16 -104 15 -105
-44 -40 -29 33 -57 56 -61 52 -11 -10 48 -128 102 -203 44 -62 43 -60 99 -301
11 -46 -25 -23 -75 49 -52 74 -183 331 -243 478 -90 218 -167 510 -167 628 0
125 35 200 115 244 58 32 95 35 135 11z m4575 -11 c34 -19 59 -42 80 -76 28
-47 30 -55 29 -150 -2 -182 -41 -346 -141 -601 -93 -235 -243 -514 -308 -575
l-27 -25 6 30 c3 17 13 70 21 120 13 77 22 99 65 165 50 77 110 191 110 209 0
22 -19 9 -65 -44 -26 -31 -49 -54 -52 -52 -2 2 6 65 17 139 11 74 32 234 45
354 27 246 30 254 109 293 36 18 53 22 65 14 24 -15 61 -84 61 -115 0 -40 18
-35 26 7 9 48 -3 103 -32 147 -29 45 -53 53 -125 40 -30 -6 -57 -8 -61 -5 -18
11 -7 73 19 103 47 57 85 62 158 22z"/>
<path d="M3620 3845 c0 -8 5 -15 10 -15 6 0 10 7 10 15 0 8 -4 15 -10 15 -5 0
-10 -7 -10 -15z"/>
<path d="M1944 3796 c-61 -20 -143 -77 -212 -150 -72 -75 -84 -111 -24 -72 95
63 299 78 527 38 66 -12 170 -30 230 -41 152 -27 315 -41 475 -41 153 0 180 5
180 30 0 40 -146 140 -230 159 -25 5 -139 15 -255 21 -118 7 -273 23 -355 36
-189 32 -284 38 -336 20z"/>
<path d="M4870 3804 c-14 -3 -68 -14 -120 -25 -59 -12 -186 -26 -335 -34 -269
-17 -329 -26 -397 -63 -52 -27 -133 -104 -133 -124 0 -21 107 -30 278 -23 191
7 264 16 522 62 301 54 476 49 608 -18 21 -11 41 -18 44 -16 19 19 -150 173
-232 211 -50 24 -179 40 -235 30z"/>
<path d="M4455 3524 c-106 -21 -139 -31 -200 -60 -76 -37 -134 -78 -123 -89 4
-4 42 7 85 23 165 63 345 82 470 48 86 -23 212 -77 295 -127 69 -42 108 -46
54 -6 -78 59 -216 139 -285 166 -107 41 -224 59 -296 45z"/>
<path d="M2303 3496 c-108 -35 -333 -168 -333 -197 0 -15 10 -11 80 30 156 93
348 149 467 137 82 -9 236 -49 309 -81 31 -14 59 -24 61 -22 19 20 -77 84
-185 125 -56 21 -87 26 -197 28 -114 3 -139 1 -202 -20z"/>
<path d="M2325 3412 c-99 -22 -172 -55 -295 -135 -104 -67 -221 -122 -284
-133 -68 -11 -16 -22 109 -23 84 -1 135 -7 215 -27 90 -23 132 -27 295 -31
211 -4 231 7 43 26 -157 15 -317 70 -305 104 3 12 193 110 235 122 18 5 22 2
22 -16 0 -52 76 -124 119 -112 45 12 86 71 83 119 -3 40 2 41 96 19 61 -14
151 -54 220 -97 53 -33 51 -10 -3 38 -158 137 -353 189 -550 146z"/>
<path d="M4448 3420 c-73 -13 -140 -37 -204 -76 -74 -44 -171 -127 -155 -132
6 -2 42 14 79 36 80 48 148 72 223 79 l56 6 6 -43 c7 -51 38 -87 84 -96 47 -9
80 16 95 71 7 24 17 46 23 49 15 5 163 -56 220 -92 44 -27 45 -29 27 -45 -40
-36 -139 -66 -274 -82 -210 -26 -200 -36 27 -30 136 3 219 10 255 20 30 9 71
20 90 25 19 5 87 10 150 10 119 0 171 12 108 24 -47 9 -174 71 -285 140 -133
82 -206 112 -312 130 -102 17 -139 18 -213 6z"/>
<path d="M2619 3270 l-24 -20 30 2 c19 2 31 9 33 21 5 23 -10 22 -39 -3z"/>
<path d="M4360 3268 c0 -50 72 -132 128 -148 47 -13 53 -5 12 17 -58 32 -80
54 -105 104 -28 54 -35 60 -35 27z"/>
<path d="M3240 3273 c0 -5 7 -54 15 -109 8 -54 15 -124 15 -154 0 -78 -30
-216 -63 -288 -8 -16 -7 -26 1 -34 22 -22 81 108 108 239 17 80 9 166 -23 271
-15 46 -53 101 -53 75z"/>
<path d="M4715 3250 c4 -6 11 -8 16 -5 14 9 11 15 -7 15 -8 0 -12 -5 -9 -10z"/>
<path d="M2270 3238 c0 -24 55 -81 97 -100 61 -27 64 -17 6 20 -26 17 -57 45
-68 62 -21 31 -35 39 -35 18z"/>
<path d="M2557 3180 c-3 -10 -21 -27 -41 -37 -20 -9 -36 -20 -36 -25 0 -18
101 20 115 42 7 11 -11 40 -25 40 -4 0 -10 -9 -13 -20z"/>
<path d="M4640 3180 c0 -5 -9 -19 -21 -31 -26 -26 -23 -28 19 -17 36 10 53 35
31 49 -19 12 -29 11 -29 -1z"/>
<path d="M3108 2943 c-19 -5 -24 -18 -9 -27 14 -9 41 4 41 20 0 14 -3 15 -32
7z"/>
<path d="M4181 2510 c-16 -9 -6 -30 15 -30 15 0 20 25 6 34 -4 2 -14 1 -21 -4z"/>
<path d="M3052 2233 c-91 -44 -115 -164 -62 -306 34 -91 92 -124 193 -109 51
8 68 25 27 30 -101 10 -130 45 -155 186 -16 93 -13 125 15 166 38 57 37 60
-18 33z"/>
<path d="M3910 2246 c0 -3 11 -26 25 -52 29 -55 31 -89 9 -187 -28 -121 -38
-133 -134 -158 -38 -9 -41 -12 -26 -21 10 -6 47 -11 81 -12 55 -1 67 2 90 24
15 14 38 46 51 72 20 40 24 62 24 138 0 62 -5 100 -15 120 -19 36 -105 98
-105 76z"/>
<path d="M3179 1955 c-31 -17 -45 -45 -28 -55 6 -4 33 -10 59 -13 26 -3 90
-22 141 -43 126 -50 172 -50 304 1 55 21 122 40 148 43 30 3 51 10 54 19 9 23
-30 54 -73 60 -33 4 -53 -3 -128 -42 -66 -35 -103 -48 -145 -52 -52 -5 -63 -1
-155 46 -103 53 -134 60 -177 36z"/>
<path d="M3415 1411 l-210 -6 -86 -42 c-47 -23 -126 -71 -177 -107 -86 -63
-94 -66 -147 -66 -48 0 -56 -3 -53 -17 10 -52 183 -58 287 -9 28 13 234 14
408 2 91 -7 146 -5 215 5 135 20 227 16 338 -15 151 -41 296 -33 277 17 -4 11
-15 14 -44 10 -35 -4 -49 3 -165 80 -156 104 -262 149 -363 152 -38 1 -164 -1
-280 -4z m360 -68 c65 -21 197 -87 214 -107 16 -20 13 -20 -58 -2 -98 25 -161
28 -268 12 -129 -20 -186 -20 -320 0 -121 18 -192 14 -279 -16 -69 -24 -70
-24 -54 -5 19 23 135 86 209 113 62 23 75 24 206 19 77 -3 160 -2 185 3 53 9
96 5 165 -17z"/>
<path d="M2964 1057 c-14 -39 53 -113 136 -151 215 -99 722 -80 877 33 42 30
78 92 69 118 -5 12 -14 8 -47 -19 -67 -55 -110 -76 -184 -90 -95 -18 -525 -18
-619 0 -73 14 -133 40 -156 67 -7 9 -26 25 -42 36 -24 17 -29 18 -34 6z"/>
</g>
</svg>
